<svg xmlns="http://www.w3.org/2000/svg" xmlns:xlink="http://www.w3.org/1999/xlink" width="1080" height="1080" viewBox="0 0 1080 1080"><defs><clipPath id="b"><rect width="1080" height="1080"/></clipPath></defs><g id="a" clip-path="url(#b)"><path d="M540,0c298.22,0,540,241.78,540,540s-241.79,540-540,540S0,838.285,0,540,241.747,0,540,0" fill="#53ae94"/><path d="M787.473,694.067v-80.33h183.7V491.34H470.957v122.4H654.676V694C505.366,700.86,393.1,730.43,393.1,765.854s112.32,64.994,261.576,71.9v257.31h132.84V837.728c149.04-6.88,261.079-36.428,261.079-71.82s-112.039-64.94-261.079-71.82m0,121.846v-.065c-3.748.238-23,1.393-65.88,1.393-34.279,0-58.4-.972-66.9-1.415v.108c-131.911-5.843-230.375-28.814-230.375-56.3s98.474-50.425,230.375-56.279V793.07c8.64.594,33.35,2.052,67.457,2.052,40.964,0,61.56-1.706,65.34-2.052V703.376c131.652,5.864,229.889,28.858,229.889,56.246s-98.28,50.393-229.889,56.257" transform="translate(-180.826 -226.016)" fill="#fff"/></g></svg>