<svg width="800" height="800" viewBox="0 0 800 800" fill="none" xmlns="http://www.w3.org/2000/svg">
<path d="M0 0H800V800H0V0Z" fill="#E30A17"/>
<path d="M487.671 400L668.578 341.227L556.764 495.107V304.893L668.578 458.773L487.671 400ZM500.004 506.947C476.833 543.563 442.396 571.664 401.877 587.02C361.357 602.376 316.945 604.157 275.326 592.095C233.707 580.033 197.131 554.779 171.102 520.136C145.073 485.492 131 443.332 131 400C131 356.668 145.073 314.508 171.102 279.864C197.131 245.221 233.707 219.968 275.326 207.905C316.945 195.843 361.357 197.624 401.877 212.98C442.396 228.336 476.833 256.437 500.004 293.053C478.366 268.976 449.934 252.028 418.462 244.448C386.99 236.868 353.958 239.013 323.731 250.6C293.504 262.186 267.502 282.669 249.16 309.343C230.818 336.018 220.998 367.628 220.998 400C220.998 432.372 230.818 463.983 249.16 490.657C267.502 517.331 293.504 537.814 323.731 549.4C353.958 560.987 386.99 563.132 418.462 555.552C449.934 547.973 478.366 531.025 500.004 506.947Z" fill="white"/>
</svg>
