<svg xmlns="http://www.w3.org/2000/svg" xmlns:xlink="http://www.w3.org/1999/xlink" width="9000" height="5000" viewBox="0 0 9000 5000">
  <defs>
    <linearGradient id="linear-gradient" x1="0.478" y1="1.298" x2="0.466" y2="0.1" gradientUnits="objectBoundingBox">
      <stop offset="0" stop-color="#565656"/>
      <stop offset="1" stop-color="#3e4046"/>
    </linearGradient>
    <clipPath id="clip-Монтажная_область_1">
      <rect width="9000" height="5000"/>
    </clipPath>
  </defs>
  <g id="Монтажная_область_1" data-name="Монтажная область – 1" clip-path="url(#clip-Монтажная_область_1)">
    <rect id="Прямоугольник_2" data-name="Прямоугольник 2" width="9000" height="5000" rx="244" fill="#3e4046"/>
    <path id="Контур_7" data-name="Контур 7" d="M17171.984-2571.072a276.367,276.367,0,0,1-167.5-56.48L13769.426-5603.02c-121.515-92.486-145.048-265.967-52.561-387.481s265.968-145.046,387.481-52.56l3067.429,2847.878c670.885-516.434,2459.994-2016.078,3520.307-2838.422,120.668-93.588,294.357-71.632,387.941,49.036s71.633,294.357-49.035,387.942c-4467.674,3464.987-3702.373,2979.856-3735.381,2996.361A276.2,276.2,0,0,1,17171.984-2571.072Z" transform="translate(-12646 6120)" fill="url(#linear-gradient)"/>
    <g id="Сгруппировать_5" data-name="Сгруппировать 5" transform="translate(3136.095 2098.738)">
      <g id="Сгруппировать_2" data-name="Сгруппировать 2" transform="translate(732.561 896.311)">
        <path id="Прямоугольник_1" data-name="Прямоугольник 1" d="M75.918,75.918V774.23h1158.61V75.918H75.918M51.3,0H1259.15a51.3,51.3,0,0,1,51.3,51.3V798.852a51.3,51.3,0,0,1-51.3,51.3H51.3A51.3,51.3,0,0,1,0,798.852V51.3A51.3,51.3,0,0,1,51.3,0Z" transform="translate(0 0)" fill="#c2c2c2"/>
        <path id="Контур_1" data-name="Контур 1" d="M629.356,798.335c-20.152,0-23.25,0-328.9-279.536C154.668,385.473,8.672,250.411,7.215,249.062l51.559-55.725C249.012,369.352,549.1,644.613,629.6,712.826c81.663-67.667,387.573-341.764,581.562-517.067l50.9,56.327c-1.485,1.342-150.207,135.72-298.681,268.371C652.352,798.335,648.841,798.335,629.356,798.335Z" transform="translate(21.783 -155.883)" fill="#c2c2c2"/>
      </g>
      <g id="Эллипс_1" data-name="Эллипс 1" transform="translate(286.834 347.497)" fill="none" stroke="#7b7b7b" stroke-width="43">
        <circle cx="1101.113" cy="1101.113" r="1101.113" stroke="none"/>
        <circle cx="1101.113" cy="1101.113" r="1079.613" fill="none"/>
      </g>
      <path id="Контур_2" data-name="Контур 2" d="M0,0H154.3L156,156" transform="translate(1277.476 254.262) rotate(45)" fill="none" stroke="#7b7b7b" stroke-linecap="round" stroke-width="43"/>
      <path id="Контур_3" data-name="Контур 3" d="M0,0H154.3L156,156" transform="translate(2586.638 1390.272) rotate(135)" fill="none" stroke="#7b7b7b" stroke-linecap="round" stroke-width="43"/>
      <path id="Контур_4" data-name="Контур 4" d="M0,0H154.3L156,156" transform="translate(1498.091 2647.412) rotate(-135)" fill="none" stroke="#7b7b7b" stroke-linecap="round" stroke-width="43"/>
      <path id="Контур_5" data-name="Контур 5" d="M0,0H154.3L156,156" transform="translate(195.769 1500.58) rotate(-45)" fill="none" stroke="#7b7b7b" stroke-linecap="round" stroke-width="43"/>
      <path id="Контур_6" data-name="Контур 6" d="M225.407-299.819h17.7a66.278,66.278,0,0,0,6.952-.316,20.764,20.764,0,0,0,5.372-1.264,21.578,21.578,0,0,0,4.529-2.423,33.709,33.709,0,0,0,4.424-3.792L384.663-431.268a23.917,23.917,0,0,1,6.214-4.74,16.211,16.211,0,0,1,7.057-1.369h17.484L285.233-303.611a61.259,61.259,0,0,1-7.057,6.53,28.119,28.119,0,0,1-6.846,3.792,23.751,23.751,0,0,1,7.9,3.9,45.547,45.547,0,0,1,7.057,6.846L423.635-139.3H406.15q-5.477,0-7.794-1.58a34.322,34.322,0,0,1-4.845-4.108L267.328-273.908q-2.317-2.317-4.213-4a18.415,18.415,0,0,0-4.318-2.844A20.914,20.914,0,0,0,253-282.44a56.049,56.049,0,0,0-8.426-.527h-19.17V-139.3H203.92V-437.8h21.487Zm608.824,11.375q0,34.548-10.322,62.67t-29.071,48.03a128.56,128.56,0,0,1-44.87,30.756q-26.121,10.849-57.93,10.849-31.388,0-57.509-10.849a128.559,128.559,0,0,1-44.87-30.756q-18.749-19.907-29.176-48.03t-10.427-62.67q0-34.337,10.427-62.46t29.176-48.03a129.766,129.766,0,0,1,44.87-30.861q26.121-10.954,57.509-10.954,31.809,0,57.93,10.849a127.893,127.893,0,0,1,44.87,30.861q18.748,20.012,29.071,48.135T834.231-288.443Zm-22.33,0q0-31.177-8.637-56.035t-24.331-42.131a104.34,104.34,0,0,0-37.813-26.437Q719-422.21,692.038-422.21q-26.543,0-48.556,9.164a106.557,106.557,0,0,0-37.918,26.437q-15.9,17.274-24.647,42.131t-8.742,56.035q0,31.388,8.742,56.14t24.647,42.026a105.413,105.413,0,0,0,37.918,26.332q22.014,9.058,48.556,9.058,26.964,0,49.083-9.058a103.24,103.24,0,0,0,37.813-26.332q15.694-17.274,24.331-42.026T811.9-288.443Zm189.052-148.934a11.829,11.829,0,0,1,4.634.737,9.9,9.9,0,0,1,3.581,3.265L1202.13-175.11q-.632-6.32-.632-12.218V-437.378h18.959V-139.3h-10.322a9.091,9.091,0,0,1-7.794-4.213L1008.537-402.2q.632,6.32.632,12.007V-139.3H990.42V-437.378Zm393.3,0h17.063a7.314,7.314,0,0,1,4.845,1.58,10.481,10.481,0,0,1,2.949,4.108l101.536,247.31a131.344,131.344,0,0,1,6.53,20.644,115.287,115.287,0,0,1,6.109-20.644l101.326-247.31a11.29,11.29,0,0,1,3.055-4,7.424,7.424,0,0,1,4.95-1.685h16.852L1536.441-139.3h-19.17Zm617.644,0v17.906H1854.954v120.5h130.607v17.484H1854.954V-157.2h156.939V-139.3H1833.256V-437.378Zm223.875,163.259V-139.3h-21.487V-437.378h76.047q51.611,0,77.1,19.907t25.49,58.457a80.086,80.086,0,0,1-5.9,31.177,73.116,73.116,0,0,1-16.958,24.752,90.457,90.457,0,0,1-26.648,17.484,118.6,118.6,0,0,1-35.179,8.953,34.124,34.124,0,0,1,9.058,8.426L2419.882-139.3h-18.748a12.376,12.376,0,0,1-5.793-1.264,15.189,15.189,0,0,1-4.74-4.213l-95.427-120.917a21.162,21.162,0,0,0-7.689-6.53q-4.108-1.9-12.745-1.9Zm0-16.01h51.822q19.8,0,35.5-4.74a76.419,76.419,0,0,0,26.543-13.587,58.663,58.663,0,0,0,16.536-21.276,66.581,66.581,0,0,0,5.688-28.017q0-31.809-20.855-47.187t-60.669-15.378h-54.56Zm570.121-147.249v18.327h-104.7V-139.3h-21.487V-419.05H2574.378v-18.327Z" transform="translate(-141 2354.264)" fill="#c2c2c2" stroke="#c2c2c2" stroke-width="1"/>
    </g>
  </g>
</svg>
