<svg xmlns="http://www.w3.org/2000/svg" viewBox="0 0 333333 333333" shape-rendering="geometricPrecision" text-rendering="geometricPrecision" image-rendering="optimizeQuality" fill-rule="evenodd" clip-rule="evenodd"><path d="M166667 0c92048 0 166667 74619 166667 166667s-74619 166667-166667 166667S0 258715 0 166667 74619 0 166667 0zm22374 119878c5776 1232 10204 3431 13987 6980 4867 4603 7536 10174 8708 18180 792 5219 470 7272-1378 8973-1730 1583-4926 1642-6861 147-1407-1056-1847-2170-2170-5191-381-4017-1085-6832-2287-9442-2581-5542-7126-8416-14808-9354-3607-439-4692-850-5865-2228-2140-2552-1319-6685 1642-8211 1115-557 1584-616 4047-469 1524 88 3783 352 4985 615zm-8269-43397c10087 1261 18239 3695 27182 8064 8796 4311 14426 8386 21874 15805 6979 7008 10850 12316 14955 20555 5718 11494 8973 25158 9529 40201 206 5131 59 6275-1114 7741-2228 2845-7125 2375-8796-820-528-1056-675-1964-850-6070-294-6304-733-10380-1613-15248-3460-19089-12609-34336-27212-45274-12169-9148-24748-13606-41227-14574-5571-322-6539-528-7800-1495-2346-1848-2463-6187-206-8210 1378-1261 2346-1437 7126-1291 2492 88 6157 381 8151 616v-1zm-67031 3167c1027 352 2610 1173 3519 1759 5572 3694 21083 23546 26156 33457 2902 5659 3870 9852 2962 12960-939 3343-2493 5102-9443 10703-2785 2258-5395 4574-5805 5190-1056 1525-1907 4516-1907 6627 30 4897 3196 13781 7361 20614 3225 5307 9002 12110 14719 17330 6715 6157 12638 10350 19324 13664 8591 4281 13841 5366 17681 3577 967-439 1994-1026 2317-1289 293-265 2550-3021 5014-6070 4750-5982 5834-6950 9090-8064 4135-1407 8357-1027 12608 1143 3226 1672 10263 6041 14808 9207 5981 4193 18766 14632 20496 16715 3050 3753 3578 8561 1525 13869-2170 5600-10615 16098-16509 20584-5337 4047-9119 5600-14104 5835-4105 205-5806-147-11055-2317-41169-16978-74039-42312-100136-77118-13635-18180-24015-37034-31112-56593-4134-11406-4339-16362-938-22197 1466-2463 7712-8562 12257-11963 7565-5630 11055-7712 13841-8298 1906-411 5219-88 7330 675zm69054 18092c17799 2609 31581 10879 40612 24309 5073 7565 8239 16450 9324 25979 381 3490 381 9853-29 10909-382 997-1613 2345-2669 2903-1143 586-3576 528-4925-176-2258-1143-2933-2961-2933-7887 0-7595-1965-15600-5366-21816-3871-7096-9500-12960-16361-17037-5894-3519-14603-6128-22550-6774-2874-234-4457-820-5542-2081-1671-1906-1848-4486-440-6627 1525-2375 3870-2756 10879-1701z" fill="#7b519d"/></svg>